<?xml version="1.0"?>
<svg width="576" height="433" xmlns="http://www.w3.org/2000/svg" xmlns:svg="http://www.w3.org/2000/svg" preserveAspectRatio="xMidYMid meet" version="1.0">
 <g class="layer">
  <title>Layer 1</title>
  <g fill="#000000" id="svg_1" transform="matrix(0.1 0 0 -0.1 0 0)">
   <path d="m2695,-909c-198,-36 -325,-87 -482,-193c-108,-73 -245,-207 -308,-303c-50,-74 -145,-250 -145,-267c0,-13 57,-9 68,5c5,6 29,48 52,92c148,277 393,482 680,569c136,41 207,49 378,43c193,-6 303,-32 471,-113c138,-66 222,-127 327,-236c85,-89 129,-150 192,-268c44,-83 84,-122 104,-102c9,9 3,30 -27,94c-207,432 -590,680 -1070,694c-107,3 -163,-1 -240,-15z" fill="#ffffff" id="svg_2"/>
   <path d="m1931,-1656c-87,-23 -151,-63 -231,-144c-139,-140 -203,-309 -203,-535c0,-176 42,-323 127,-440c20,-27 36,-53 36,-56c0,-3 -34,1 -76,10c-72,15 -77,15 -89,-2c-24,-33 18,-126 79,-172c66,-50 235,-110 395,-140c518,-97 1563,-81 1961,30c178,50 271,108 316,197c24,47 24,51 9,74c-18,28 -52,31 -114,9c-46,-16 -46,-17 5,55c100,142 141,317 124,528c-11,139 -45,246 -109,342c-123,188 -294,272 -524,257c-78,-5 -101,-11 -175,-47c-192,-92 -310,-277 -342,-538c-9,-65 -7,-99 10,-194c22,-130 50,-202 114,-292c84,-118 204,-206 338,-247c115,-36 354,-19 507,35c85,31 62,-4 -34,-52c-180,-90 -534,-126 -1215,-126c-476,0 -593,8 -876,54c-172,28 -344,90 -344,124c0,11 25,7 108,-17c98,-27 121,-30 267,-31c145,-1 165,1 217,22c94,38 200,114 257,183c113,140 161,280 161,469c0,133 -22,236 -72,340c-76,155 -231,282 -378,310c-74,14 -185,11 -249,-6zm254,-68c268,-71 436,-391 370,-705c-42,-200 -179,-376 -345,-443c-47,-19 -74,-23 -180,-23c-121,0 -127,1 -192,33c-106,52 -193,158 -246,301c-19,52 -25,92 -29,186c-8,186 25,307 119,450c43,64 67,89 124,128c40,26 96,56 125,67c64,23 181,26 254,6zm1663,-9c115,-41 211,-121 275,-229c61,-102 79,-174 85,-329c5,-159 -5,-217 -54,-320c-61,-126 -121,-190 -233,-247c-70,-34 -82,-37 -178,-40c-84,-3 -114,0 -167,18c-180,60 -319,217 -371,419c-24,95 -22,267 5,356c57,187 177,318 343,377c63,22 227,19 295,-5z" fill="#ffffff" id="svg_3"/>
   <path d="m2050,-2187c-89,-36 -126,-132 -85,-222c32,-73 134,-103 203,-61c95,58 96,193 2,261c-27,20 -95,32 -120,22zm85,-79c17,-7 45,-54 45,-78c0,-8 -12,-28 -26,-45c-51,-61 -134,-26 -134,55c0,58 56,90 115,68z" fill="#ffffff" id="svg_4"/>
   <path d="m3604,-2194c-45,-20 -86,-78 -91,-130c-10,-85 65,-169 150,-169c90,0 147,58 147,152c0,68 -26,113 -84,140c-49,24 -78,26 -122,7zm101,-72c17,-7 45,-54 45,-78c0,-8 -12,-28 -26,-45c-51,-61 -144,-28 -144,51c0,56 66,94 125,72z" fill="#ffffff" id="svg_5"/>
   <path d="m1893,-3185c15,-14 36,-27 47,-28c10,-1 17,-4 15,-8c-5,-6 71,-57 115,-76c14,-6 56,-26 94,-43c37,-18 89,-35 115,-37c25,-3 71,-13 101,-24c86,-29 222,-38 520,-34c337,4 387,12 701,108c26,8 62,26 81,41c19,14 39,26 45,26c13,0 59,40 56,50c-1,4 11,10 27,14c17,3 30,11 30,17c0,6 -7,8 -17,5c-45,-18 -305,-37 -632,-48c-546,-17 -1115,8 -1306,59c-17,4 -15,0 8,-22z" fill="#ffffff" id="svg_6"/>
  </g>
 </g>
</svg>